<?xml version="1.0" encoding="utf-8"?>
<!-- Generator: Adobe Illustrator 20.1.0, SVG Export Plug-In . SVG Version: 6.00 Build 0)  -->
<svg version="1.1" id="Layer_1" xmlns="http://www.w3.org/2000/svg" xmlns:xlink="http://www.w3.org/1999/xlink" x="0px" y="0px"
	 viewBox="0 0 100 100" style="enable-background:new 0 0 100 100;" xml:space="preserve">
<style type="text/css">
	.st0{fill:#FFE600;}
	.st1{fill:#2B0D01;}
</style>
<g>
	<polygon class="st0" points="36.2,63.6 8,52.9 33.7,37 35.2,6.9 58.2,26.4 87.4,18.5 75.9,46.4 92.4,71.7 62.3,69.4 43.4,92.9 	"/>
	<path class="st1" d="M36.6,10L56.7,27l1.2,1l1.5-0.4l25.4-6.9l-10,24.4l-0.6,1.5l0.9,1.3L89.5,70l-26.3-2l-1.6-0.1l-1,1.2
		L44.1,89.6L37.9,64l-0.4-1.5L36,61.9l-24.6-9.4l22.4-13.8l1.3-0.8l0.1-1.6L36.6,10 M33.9,3.7l-1.6,32.4l-27.6,17L35,64.7l7.7,31.5
		L63,71l32.3,2.4L77.6,46.3l12.3-30l-31.3,8.5L33.9,3.7L33.9,3.7z"/>
</g>
</svg>
